<?xml version="1.0" standalone="no"?>
<!DOCTYPE svg PUBLIC "-//W3C//DTD SVG 20010904//EN"
 "http://www.w3.org/TR/2001/REC-SVG-20010904/DTD/svg10.dtd">
<svg version="1.0" xmlns="http://www.w3.org/2000/svg"
 width="639.000000pt" height="515.000000pt" viewBox="0 0 639.000000 515.000000"
 preserveAspectRatio="xMidYMid meet">

<g transform="translate(0.000000,515.000000) scale(0.100000,-0.100000)"
fill="#000000" stroke="none">
<path d="M2105 4152 c-66 -15 -126 -31 -132 -35 -10 -6 -13 -58 -13 -203 0
-178 1 -194 18 -194 9 0 77 13 151 29 96 20 138 34 148 47 10 14 13 60 11 199
l-3 180 -30 2 c-16 1 -84 -10 -150 -25z m-64 -89 c16 -10 29 -21 29 -26 0 -13
-51 -77 -61 -77 -16 0 -10 23 12 46 l21 22 -21 11 c-12 7 -21 18 -21 26 0 19
6 19 41 -2z m124 -53 c7 -11 -35 -30 -66 -30 -28 0 -19 23 12 31 36 10 47 10
54 -1z"/>
<path d="M1450 2839 c-12 -23 -20 -43 -18 -45 3 -2 14 17 26 41 27 56 20 60
-8 4z"/>
<path d="M902 2813 c3 -57 3 -58 36 -61 18 -2 32 1 32 7 0 6 -14 11 -31 11
-23 0 -30 4 -27 17 2 9 14 20 28 24 25 7 25 7 -3 8 -39 1 -33 34 8 42 29 6 28
7 -8 8 l-38 1 3 -57z"/>
<path d="M1313 2815 c0 -33 2 -45 4 -27 2 18 2 45 0 60 -2 15 -4 0 -4 -33z"/>
<path d="M1562 2822 c-2 -47 1 -54 23 -64 21 -9 29 -9 40 3 13 12 10 14 -18
14 -31 0 -32 2 -38 50 l-6 50 -1 -53z"/>
<path d="M1638 2825 c-2 -19 0 -35 4 -35 4 0 8 16 8 35 0 19 -2 35 -4 35 -2 0
-6 -16 -8 -35z"/>
<path d="M1000 2795 c0 -27 2 -46 4 -44 8 8 10 78 3 85 -4 4 -7 -14 -7 -41z"/>
<path d="M1043 2829 c11 -6 18 -23 18 -47 l2 -37 6 40 c6 41 -1 55 -29 55 -12
-1 -11 -3 3 -11z"/>
<path d="M1102 2828 c9 -7 19 -29 21 -48 3 -26 4 -24 3 10 -1 36 -5 45 -21 48
-18 4 -19 3 -3 -10z"/>
<path d="M1161 2818 c-15 -41 12 -73 54 -62 21 5 25 12 25 43 0 34 -2 36 -35
39 -29 2 -37 -2 -44 -20z m57 0 c18 -18 15 -36 -7 -48 -28 -14 -55 13 -41 41
12 22 30 25 48 7z"/>
<path d="M1273 2795 c0 -27 2 -38 4 -22 2 15 2 37 0 50 -2 12 -4 0 -4 -28z"/>
<path d="M1680 2820 c0 -13 10 -24 26 -30 29 -12 22 -34 -9 -26 -15 4 -17 2
-8 -7 8 -8 16 -9 28 -1 27 17 26 33 -1 44 -33 12 -34 34 -1 28 13 -3 22 -1 19
3 -3 5 -16 9 -30 9 -17 0 -24 -5 -24 -20z"/>
<path d="M1770 2825 c-28 -34 24 -97 54 -65 8 10 7 12 -6 7 -9 -3 -24 1 -35 8
-16 13 -15 14 20 15 38 0 48 15 25 38 -16 16 -43 15 -58 -3z m55 -5 c3 -5 1
-11 -4 -11 -6 -1 -17 -2 -23 -3 -19 -3 -29 4 -23 15 8 12 42 12 50 -1z"/>
<path d="M1871 2790 l2 -45 6 39 c4 26 13 42 26 47 17 6 15 7 -7 6 -26 -1 -28
-4 -27 -47z"/>
<path d="M1943 2799 c-2 -47 14 -52 19 -6 2 24 8 32 22 32 15 0 20 -7 21 -28
2 -37 15 -47 15 -11 0 41 -11 53 -45 52 -28 -1 -30 -4 -32 -39z"/>
<path d="M2050 2820 c-21 -40 6 -74 49 -63 17 4 21 13 21 42 0 34 -3 37 -30
39 -21 2 -32 -4 -40 -18z m58 -19 c4 -25 -13 -42 -34 -34 -19 7 -26 34 -13 50
17 20 43 12 47 -16z"/>
<path d="M2161 2791 l2 -46 6 40 c5 31 10 40 26 40 11 0 21 -6 21 -12 6 -55 7
-57 13 -23 4 22 12 36 24 38 14 3 17 -4 17 -33 0 -22 4 -34 10 -30 14 9 12 51
-2 62 -7 6 -37 10 -65 10 l-53 0 1 -46z"/>
<path d="M2324 2813 c-12 -44 32 -83 60 -52 8 9 7 11 -6 6 -21 -7 -48 1 -48
14 0 5 13 9 28 9 37 0 44 8 29 31 -18 29 -55 24 -63 -8z m54 0 c2 -8 -6 -13
-22 -13 -25 0 -33 10 -19 24 10 10 36 3 41 -11z"/>
<path d="M1405 2749 c-4 -6 -5 -12 -2 -15 2 -3 7 2 10 11 7 17 1 20 -8 4z"/>
<path d="M901 1913 c1 -32 4 -48 6 -36 3 15 13 23 30 25 58 7 51 68 -8 68 -29
0 -29 -1 -28 -57z m59 32 c16 -19 4 -35 -26 -35 -17 0 -24 6 -24 18 0 34 28
43 50 17z"/>
<path d="M1660 1951 c0 -14 -6 -17 -24 -14 -42 8 -61 -65 -22 -80 22 -9 56 4
56 20 0 12 -2 12 -16 -1 -12 -12 -20 -13 -35 -5 -24 12 -22 37 4 53 15 9 21 7
33 -8 13 -19 14 -17 14 17 0 20 -2 37 -5 37 -3 0 -5 -8 -5 -19z"/>
<path d="M1010 1920 c-11 -20 -6 -59 8 -61 4 -1 19 -2 35 -3 25 -2 27 1 27 39
0 38 -2 41 -30 43 -21 2 -32 -4 -40 -18z m58 -16 c2 -11 -4 -27 -13 -34 -22
-19 -50 9 -40 39 9 29 49 25 53 -5z"/>
<path d="M1115 1930 c-8 -13 13 -40 30 -40 8 0 16 -8 18 -17 4 -17 5 -17 6 0
0 10 -10 22 -24 29 -32 14 -32 32 0 26 13 -3 22 -1 19 3 -7 12 -42 11 -49 -1z"/>
<path d="M1200 1931 c0 -4 11 -6 25 -3 14 2 25 6 25 8 0 2 -11 4 -25 4 -14 0
-25 -4 -25 -9z"/>
<path d="M1282 1930 c0 -8 5 -31 13 -50 l13 -35 12 30 12 30 13 -29 12 -28 17
42 c9 23 15 45 12 47 -3 3 -8 -6 -12 -21 -8 -32 -22 -34 -33 -4 l-8 23 -7 -23
c-10 -30 -22 -28 -34 6 -6 15 -10 20 -10 12z"/>
<path d="M1420 1920 c-21 -40 12 -80 54 -64 22 8 31 50 16 69 -18 22 -57 19
-70 -5z m64 -13 c9 -14 7 -21 -7 -32 -21 -15 -43 -11 -51 11 -16 41 35 59 58
21z"/>
<path d="M1531 1895 l2 -40 6 34 c4 21 14 37 26 42 17 6 15 7 -7 6 -26 -1 -28
-4 -27 -42z"/>
<path d="M1204 1901 c3 -5 16 -11 28 -14 22 -6 22 -5 4 8 -22 17 -40 20 -32 6z"/>
<path d="M1115 1860 c3 -5 14 -10 23 -10 15 0 15 2 2 10 -20 13 -33 13 -25 0z"/>
<path d="M1195 1860 c3 -5 14 -10 23 -10 15 0 15 2 2 10 -20 13 -33 13 -25 0z"/>
<path d="M5188 1713 c45 -2 119 -2 165 0 45 1 8 3 -83 3 -91 0 -128 -2 -82 -3z"/>
<path d="M5064 1520 c0 -80 2 -112 3 -72 2 39 2 105 0 145 -1 39 -3 7 -3 -73z"/>
<path d="M5484 1515 c0 -82 2 -115 3 -72 2 43 2 110 0 150 -1 40 -3 5 -3 -78z"/>
<path d="M5225 1576 c-16 -7 -40 -25 -53 -39 l-23 -25 27 -26 c62 -57 128 -58
190 -4 l35 31 -23 25 c-25 27 -77 52 -105 52 -10 -1 -31 -7 -48 -14z m95 -61
c0 -39 -31 -58 -67 -42 -30 13 -31 60 -2 81 33 23 69 2 69 -39z"/>
<path d="M5256 1531 c-9 -14 4 -41 19 -41 18 0 26 15 19 34 -7 17 -29 21 -38
7z"/>
<path d="M5198 1323 c45 -2 119 -2 165 0 45 1 8 3 -83 3 -91 0 -128 -2 -82 -3z"/>
<path d="M4203 943 c9 -2 25 -2 35 0 9 3 1 5 -18 5 -19 0 -27 -2 -17 -5z"/>
<path d="M901 744 c-20 -25 -21 -39 -21 -280 0 -160 4 -255 10 -259 6 -4 8
-10 5 -15 -3 -5 5 -16 18 -25 21 -14 256 -15 2285 -13 1921 3 2263 5 2274 17
11 12 10 13 -2 9 -13 -5 -15 26 -12 243 2 218 1 249 -13 249 -8 0 -15 4 -15
10 0 7 -756 11 -2232 12 -1772 2 -2232 6 -2235 15 -4 10 450 13 2234 16 l2238
2 -2242 3 c-2052 2 -2243 3 -2243 18 0 11 5 14 16 10 9 -3 1020 -6 2248 -6
l2233 0 -4 -37 c-2 -28 -1 -34 7 -23 5 8 7 24 4 35 -4 16 -3 17 5 5 6 -8 7
-26 4 -39 -3 -13 -2 -21 3 -18 5 3 8 -97 6 -239 -2 -163 1 -244 8 -244 7 0 10
88 10 262 l0 262 -27 28 -27 28 -2257 0 -2258 0 -20 -26z m39 6 c0 -5 -5 -10
-11 -10 -5 0 -7 5 -4 10 3 6 8 10 11 10 2 0 4 -4 4 -10z m-6 -26 c20 -8 21
-24 1 -24 -8 0 -15 -7 -15 -15 0 -9 -6 -12 -15 -9 -8 4 -15 14 -15 23 0 14 2
14 11 1 9 -12 10 -11 6 8 -5 23 0 26 27 16z m19 -47 c-4 -6 0 -8 10 -4 10 4
17 1 17 -6 0 -8 4 -6 10 3 9 13 10 13 10 0 0 -13 1 -13 10 0 9 13 10 13 10 0
0 -13 1 -13 10 0 9 13 10 13 10 0 0 -13 1 -13 10 0 9 13 10 13 10 0 0 -13 1
-13 10 0 9 13 10 13 10 0 0 -13 1 -13 10 0 9 13 10 13 10 0 0 -13 1 -13 10 0
9 13 10 13 10 0 0 -13 1 -13 10 0 9 13 10 13 10 0 0 -13 1 -13 10 0 9 13 10
13 10 0 0 -13 1 -13 10 0 9 13 10 13 10 0 0 -13 1 -13 10 0 9 13 10 13 10 0 0
-13 1 -13 10 0 9 13 10 13 10 0 0 -13 1 -13 10 0 9 13 10 13 10 0 0 -13 1 -13
10 0 9 13 10 13 10 0 0 -13 1 -13 10 0 9 13 10 13 10 0 0 -13 1 -13 10 0 9 13
10 13 10 0 0 -13 1 -13 10 0 9 13 10 13 10 0 0 -13 1 -13 10 0 9 13 10 13 10
0 0 -13 1 -13 10 0 9 13 10 13 10 0 0 -13 1 -13 10 0 9 13 10 13 10 0 0 -13 1
-13 10 0 9 13 10 13 10 0 0 -13 1 -13 10 0 9 13 10 13 10 0 0 -13 1 -13 10 0
9 13 10 13 10 0 0 -13 1 -13 10 0 9 13 10 13 10 0 0 -13 1 -13 10 0 9 13 10
13 10 0 0 -13 1 -13 10 0 9 13 10 13 10 0 0 -13 1 -13 10 0 9 13 10 13 10 0 0
-13 1 -13 10 0 9 13 10 13 10 0 0 -13 1 -13 10 0 9 13 10 13 10 0 0 -13 1 -13
10 0 9 13 10 13 10 0 0 -13 1 -13 10 0 9 13 10 13 10 0 0 -13 1 -13 10 0 9 13
10 13 10 0 0 -13 1 -13 10 0 9 13 10 13 10 0 0 -13 1 -13 10 0 9 13 10 13 10
0 0 -13 1 -13 10 0 9 13 10 13 10 0 0 -13 1 -13 10 0 9 13 10 13 10 0 0 -13 1
-13 10 0 9 13 10 13 10 0 0 -13 1 -13 10 0 9 13 10 13 10 0 0 -13 1 -13 10 0
9 13 10 13 10 0 0 -13 1 -13 10 0 9 13 10 13 10 0 0 -13 1 -13 10 0 9 13 10
13 10 0 0 -13 1 -13 10 0 9 13 10 13 10 0 0 -13 1 -13 10 0 9 13 10 13 10 0 0
-13 1 -13 10 0 9 13 10 13 10 0 0 -13 1 -13 10 0 9 13 10 13 10 0 0 -13 1 -13
10 0 9 13 10 13 10 0 0 -13 1 -13 10 0 9 13 10 13 10 0 0 -13 1 -13 10 0 9 13
10 13 10 0 0 -13 1 -13 10 0 9 13 10 13 10 0 0 -13 1 -13 10 0 9 13 10 13 10
0 0 -13 1 -13 10 0 9 13 10 13 10 0 0 -13 1 -13 10 0 9 13 10 13 10 0 0 -13 1
-13 10 0 9 13 10 13 10 0 0 -13 1 -13 10 0 9 13 10 13 10 0 0 -13 1 -13 10 0
9 13 10 13 10 0 0 -13 1 -13 10 0 9 13 10 13 10 0 0 -13 1 -13 10 0 9 13 10
13 10 0 0 -13 1 -13 10 0 9 13 10 13 10 0 0 -13 1 -13 10 0 9 13 10 13 10 0 0
-13 1 -13 10 0 9 13 10 13 10 0 0 -13 1 -13 10 0 9 13 10 13 10 0 0 -13 1 -13
10 0 9 13 10 13 11 0 0 -12 2 -12 6 -1 5 11 7 11 14 0 7 -12 9 -11 9 1 0 13 1
13 10 0 9 -13 10 -13 10 0 0 13 1 13 10 0 9 -13 10 -13 10 0 0 13 1 13 10 0 9
-13 10 -13 10 0 0 13 1 13 10 0 9 -13 10 -13 10 0 0 13 1 13 10 0 9 -13 10
-13 10 0 0 13 1 13 10 0 9 -13 10 -13 10 0 0 13 1 13 10 0 9 -13 10 -13 10 0
0 13 1 13 10 0 9 -13 10 -13 10 0 0 13 1 13 10 0 9 -13 10 -13 10 0 0 13 1 13
10 0 9 -13 10 -13 10 0 0 13 1 13 10 0 9 -13 10 -13 10 0 0 13 1 13 10 0 9
-13 10 -13 10 0 0 13 1 13 10 0 9 -13 10 -13 10 0 0 13 1 13 10 0 9 -13 10
-13 10 0 0 13 1 13 10 0 9 -13 10 -13 10 0 0 13 1 13 10 0 9 -13 10 -13 10 0
0 13 1 13 10 0 9 -13 10 -13 10 0 0 13 1 13 10 0 9 -13 10 -13 10 0 0 13 1 13
10 0 9 -13 10 -13 10 0 0 13 1 13 10 0 9 -13 10 -13 10 0 0 13 1 13 10 0 9
-13 10 -13 10 0 0 13 1 13 10 0 9 -13 10 -13 10 0 0 13 1 13 10 0 9 -13 10
-13 10 0 0 13 1 13 10 0 9 -13 10 -13 10 0 0 13 1 13 10 0 9 -13 10 -13 10 0
0 13 1 13 10 0 9 -13 10 -13 10 0 0 13 1 13 10 0 9 -13 10 -13 10 0 0 13 1 13
10 0 9 -13 10 -13 10 0 0 13 1 13 10 0 9 -13 10 -13 10 0 0 13 1 13 10 0 9
-13 10 -13 10 0 0 13 1 13 10 0 6 -10 10 -11 10 -2 0 21 25 13 37 -13 6 -14 7
-25 3 -25 -5 0 -10 6 -13 13 -2 6 -8 8 -13 4 -5 -4 -2 -12 6 -17 17 -11 22
-40 7 -40 -7 0 -5 -5 3 -10 13 -9 13 -10 0 -11 -8 -1 -19 -1 -23 0 -4 1 -3 -8
3 -19 7 -13 7 -20 0 -20 -6 0 -10 -30 -10 -75 0 -49 4 -75 11 -75 8 0 9 -4 0
-13 -6 -8 -8 -17 -4 -20 13 -13 30 -7 41 16 6 12 11 16 11 10 1 -7 6 -13 12
-13 6 0 7 5 2 12 -4 7 -9 24 -10 38 -3 24 -3 24 9 5 16 -26 19 -47 8 -60 -6
-7 -2 -11 10 -12 16 -1 18 2 10 22 -11 28 -1 39 18 19 7 -8 8 -14 3 -14 -6 0
-8 -6 -5 -13 2 -7 13 -13 24 -13 10 0 16 4 14 8 -3 4 0 8 5 8 6 0 11 -3 11 -7
0 -5 19 -9 43 -9 38 -2 43 1 45 22 1 13 -3 24 -9 24 -6 0 -9 -7 -6 -15 7 -18
-9 -30 -19 -14 -5 8 -3 9 6 4 9 -5 11 -4 6 4 -4 6 -12 9 -17 6 -5 -4 -9 -1 -9
5 0 6 -4 9 -9 6 -9 -6 -31 36 -31 61 0 9 8 26 18 37 17 20 16 20 -3 6 -19 -14
-19 -14 -6 3 8 9 21 15 30 12 15 -5 161 -7 226 -4 54 3 66 -1 75 -23 8 -21 9
-20 8 7 -1 17 -5 35 -9 40 -5 7 2 12 19 13 36 3 54 22 21 23 -13 0 -18 3 -12
6 21 8 15 22 -7 16 -12 -3 -20 0 -20 6 0 7 5 9 10 6 6 -3 10 -1 10 4 0 6 9 11
20 11 15 0 20 7 20 24 0 14 -5 28 -10 31 -5 3 -10 -3 -10 -14 0 -23 -19 -27
-39 -8 -11 10 -13 10 -7 0 4 -7 2 -13 -4 -13 -6 0 -10 10 -8 23 3 19 9 22 51
22 40 0 47 -2 47 -19 0 -11 3 -16 8 -12 4 4 7 12 7 17 0 5 5 9 10 9 6 0 11
-16 13 -35 4 -48 25 -41 33 11 3 21 7 32 8 24 1 -13 2 -13 11 0 9 13 10 13 10
0 0 -13 1 -13 10 0 9 13 10 13 10 0 0 -13 1 -13 10 0 9 13 10 13 10 0 0 -13 1
-13 10 0 9 13 10 13 10 0 0 -13 1 -13 10 0 9 13 10 13 10 0 0 -13 1 -13 10 0
9 13 10 13 10 0 0 -13 1 -13 10 0 9 13 10 13 10 0 0 -13 1 -13 10 0 9 13 10
13 10 0 0 -13 1 -13 10 0 9 13 10 13 10 0 0 -13 1 -13 10 0 9 13 10 13 10 0 0
-13 1 -13 10 0 9 13 10 13 10 0 0 -13 1 -13 10 0 9 13 10 13 10 0 0 -13 1 -13
10 0 9 13 10 13 10 0 0 -13 1 -13 10 0 9 13 10 13 10 0 0 -13 1 -13 10 0 9 13
10 13 10 0 0 -13 1 -13 10 0 9 13 10 13 10 0 0 -13 1 -13 10 0 9 13 10 13 10
0 0 -13 1 -13 10 0 9 13 10 13 10 0 0 -13 1 -13 10 0 9 13 10 13 10 0 0 -13 1
-13 10 0 9 13 10 13 10 0 0 -13 1 -13 10 0 9 13 10 13 10 0 0 -13 1 -13 10 0
9 13 10 13 10 0 0 -13 1 -13 10 0 9 13 10 13 10 0 0 -13 1 -13 10 0 9 13 10
13 10 0 0 -13 1 -13 10 0 9 13 10 13 10 0 0 -13 1 -13 10 0 9 13 10 13 10 0 0
-13 1 -13 10 0 9 13 10 13 10 0 0 -13 1 -13 10 0 9 13 10 13 10 0 0 -13 1 -13
10 0 9 13 10 13 10 0 0 -13 1 -13 10 0 9 13 10 13 10 0 0 -13 1 -13 10 0 9 13
10 13 10 0 0 -13 1 -13 10 0 9 13 10 13 10 0 0 -13 1 -13 10 0 9 13 10 13 10
0 0 -13 1 -13 10 0 9 13 10 13 10 0 0 -13 1 -13 10 0 9 13 10 13 10 0 0 -13 1
-13 10 0 9 13 10 13 10 0 0 -13 1 -13 10 0 9 13 10 13 10 0 0 -13 1 -13 10 0
9 13 10 13 10 0 0 -13 1 -13 10 0 9 13 10 13 10 0 0 -13 1 -13 10 0 9 13 10
13 10 0 0 -13 1 -13 10 0 9 13 10 13 10 0 0 -13 1 -13 10 0 9 13 10 13 10 0 0
-13 1 -13 10 0 9 13 10 13 10 0 0 -13 1 -13 10 0 9 13 10 13 10 0 0 -13 1 -13
10 0 9 13 10 13 10 0 0 -13 1 -13 10 0 9 13 10 13 10 0 0 -13 1 -13 10 0 9 13
10 13 10 0 0 -13 1 -13 10 0 9 13 10 13 10 0 0 -13 1 -13 10 0 9 13 10 13 10
0 0 -13 1 -13 10 0 9 13 10 13 10 0 0 -13 1 -13 10 0 9 13 10 13 10 0 0 -13 1
-13 10 0 9 13 10 13 10 0 0 -13 1 -13 10 0 9 13 10 13 10 0 0 -13 1 -13 10 0
9 13 10 13 10 0 0 -13 1 -13 10 0 9 13 10 13 10 0 0 -13 1 -13 10 0 9 13 10
13 10 0 0 -13 1 -13 10 0 9 13 10 13 10 0 0 -13 1 -13 10 0 9 13 10 13 10 0 0
-13 1 -13 10 0 9 13 10 13 10 0 0 -13 1 -13 10 0 9 13 10 13 10 0 0 -13 1 -13
10 0 9 13 10 13 10 0 0 -13 1 -13 10 0 9 13 10 13 10 0 0 -13 1 -13 10 0 9 13
10 13 10 0 0 -13 1 -13 10 0 9 13 10 13 10 0 0 -13 1 -13 10 0 9 13 10 13 10
0 0 -13 1 -13 10 0 9 13 10 13 10 0 0 -13 1 -13 10 0 9 13 10 13 10 0 0 -13 1
-13 10 0 9 13 10 13 10 0 0 -13 1 -13 10 0 9 13 10 13 10 0 0 -13 1 -13 10 0
9 13 10 13 10 0 0 -13 1 -13 10 0 9 13 10 13 10 0 0 -13 1 -13 10 0 9 13 10
13 10 0 0 -13 1 -13 10 0 9 13 10 13 10 0 0 -13 1 -13 10 0 9 13 10 13 10 0 0
-13 1 -13 10 0 9 13 10 13 10 0 0 -13 1 -13 10 0 9 13 10 13 10 0 0 -13 1 -13
10 0 9 13 10 13 10 0 0 -13 1 -13 10 0 9 13 10 13 10 0 0 -13 1 -13 10 0 9 13
10 13 10 0 0 -13 1 -13 10 0 9 13 10 13 10 0 0 -13 1 -13 10 0 9 13 10 13 10
0 0 -13 1 -13 10 0 9 13 10 13 10 0 0 -13 1 -13 10 0 9 13 10 13 10 0 0 -13 1
-13 10 0 9 13 10 13 10 0 0 -13 1 -13 10 0 9 13 10 13 10 0 0 -13 1 -13 10 0
9 13 10 13 10 0 0 -13 1 -13 10 0 9 13 10 13 10 0 0 -13 1 -13 10 0 9 13 10
13 10 0 0 -13 1 -13 10 0 9 13 10 13 10 0 0 -13 1 -13 10 0 9 13 10 13 10 0 0
-13 1 -13 10 0 9 13 10 13 10 0 0 -13 1 -13 10 0 9 13 10 13 10 0 0 -13 1 -13
10 0 9 13 10 13 10 0 0 -13 1 -13 10 0 6 10 10 11 10 3 0 -7 7 -13 15 -13 13
0 15 -33 15 -240 0 -183 -3 -242 -12 -245 -7 -3 -1024 -6 -2261 -8 -2134 -2
-2247 -1 -2247 16 0 9 -4 17 -10 17 -5 0 -10 14 -10 30 0 17 -5 30 -12 31 -10
0 -10 2 0 6 9 3 12 52 12 194 0 189 6 226 36 226 7 0 10 -5 7 -10z m2014 -13
c9 -8 21 -13 28 -10 8 3 16 -2 19 -10 3 -8 2 -14 -2 -14 -4 0 -8 -9 -9 -21 -3
-35 -22 -50 -47 -37 -11 7 -27 11 -35 9 -23 -4 -1 19 32 33 26 12 28 15 11 15
-25 1 -49 25 -39 41 9 14 24 13 42 -6z m30 10 c-3 -3 -12 -4 -19 -1 -8 3 -5 6
6 6 11 1 17 -2 13 -5z m63 -6 c0 -9 4 -8 10 2 9 13 10 13 10 0 0 -13 1 -13 10
0 9 13 10 13 10 0 0 -13 1 -13 10 0 9 13 10 13 10 0 0 -13 1 -13 10 0 9 13 10
13 10 0 0 -13 1 -13 10 0 9 13 10 13 10 0 0 -13 1 -13 10 0 9 13 10 13 10 0 0
-13 1 -13 10 0 9 13 10 13 10 0 0 -13 1 -13 10 0 9 13 10 13 10 0 0 -13 1 -13
10 0 9 13 10 13 10 0 0 -13 1 -13 10 0 9 13 10 13 10 0 0 -13 1 -13 10 0 9 13
10 13 10 0 0 -13 1 -13 10 0 9 13 10 13 10 0 0 -13 1 -13 10 0 9 13 10 13 10
0 0 -12 2 -12 9 -2 7 11 10 10 15 -3 3 -9 6 -25 6 -36 0 -10 5 -19 11 -19 7 0
9 -10 7 -25 -3 -13 -1 -23 5 -22 5 1 12 -4 15 -12 3 -8 0 -11 -7 -7 -17 11
-34 -3 -22 -18 7 -8 0 -10 -30 -8 -22 2 -46 -1 -53 -7 -10 -8 -16 -9 -21 -1
-4 6 -47 10 -105 10 -101 0 -115 5 -115 42 0 10 -4 17 -10 17 -5 0 -9 -9 -8
-19 2 -14 -2 -18 -14 -13 -11 4 -14 3 -9 -5 4 -7 14 -12 22 -12 11 0 14 -16
14 -71 0 -50 3 -68 12 -63 7 4 8 3 4 -4 -4 -7 -3 -12 1 -12 5 0 18 -7 29 -16
18 -15 18 -15 -2 -5 -12 6 -24 7 -28 4 -3 -3 -6 -1 -6 7 0 10 -4 10 -17 -1
-15 -12 -16 -12 -11 3 5 11 0 18 -14 21 -12 4 -18 11 -15 19 16 40 16 49 -1
19 l-19 -33 -22 33 -22 34 3 -37 c2 -21 0 -38 -4 -38 -4 0 -8 -8 -8 -17 -1
-15 -3 -14 -13 4 -7 13 -11 48 -9 87 3 55 7 66 21 66 10 0 24 -11 31 -25 7
-14 18 -25 23 -25 5 0 4 7 -3 15 -6 8 -8 20 -4 26 4 7 3 9 -4 5 -6 -3 -13 -2
-17 4 -3 5 -1 10 5 10 6 0 8 5 4 11 -4 8 -9 7 -15 -2 -7 -12 -9 -12 -9 0 0 11
-3 11 -15 1 -10 -9 -15 -9 -15 -1 0 10 13 15 33 12 4 0 7 5 7 11 0 9 2 10 8 2
4 -6 17 -14 28 -18 16 -5 26 0 39 21 10 16 24 32 32 36 7 4 13 20 12 35 0 15
-3 21 -6 15 -7 -18 -23 -16 -23 2 0 8 9 15 20 15 11 0 20 -6 20 -12z"/>
<path d="M920 462 c-3 -131 -1 -202 5 -202 6 0 9 49 7 132 -5 255 -8 272 -12
70z"/>
<path d="M3463 583 c16 -4 15 -7 -6 -23 -15 -12 -24 -30 -25 -50 -1 -28 0 -29
20 -16 30 21 50 11 36 -20 -6 -13 -16 -24 -21 -24 -6 0 -3 -8 6 -18 10 -10 17
-24 17 -30 0 -22 -19 -22 -39 0 -15 15 -21 17 -21 7 0 -17 37 -42 50 -34 6 4
10 2 10 -4 0 -5 -5 -11 -12 -13 -7 -3 -5 -7 6 -11 10 -4 15 -3 11 3 -3 6 -2
10 4 10 5 0 11 -6 14 -12 2 -7 8 -9 13 -5 5 5 1 15 -10 23 -14 10 -16 14 -5
14 12 0 12 2 -1 10 -13 8 -8 14 11 12 3 -1 6 5 6 13 0 7 -7 11 -15 8 -11 -5
-13 -1 -7 17 4 12 9 30 10 39 2 9 4 16 5 16 1 0 3 10 4 23 3 29 -11 38 -19 12
-7 -22 -24 -27 -26 -7 -2 19 -2 20 6 45 5 18 3 22 -17 21 -17 -1 -19 -2 -5 -6z
m29 -145 c-7 -7 -12 -8 -12 -2 0 14 12 26 19 19 2 -3 -1 -11 -7 -17z"/>
<path d="M3310 490 c0 -3 6 -12 13 -19 8 -10 8 -12 0 -7 -8 4 -11 -2 -10 -19
3 -38 22 -25 23 16 1 24 -3 36 -12 36 -8 0 -14 -3 -14 -7z"/>
<path d="M3089 468 c-9 -23 -4 -48 11 -48 20 0 22 41 3 48 -7 2 -14 2 -14 0z
m21 -18 c0 -5 -2 -10 -4 -10 -3 0 -8 5 -11 10 -3 6 -1 10 4 10 6 0 11 -4 11
-10z"/>
<path d="M3160 433 c0 -28 -5 -43 -12 -43 -7 0 -5 -5 5 -11 9 -6 15 -15 11
-21 -4 -6 -10 -5 -15 3 -6 10 -9 10 -9 2 0 -16 21 -28 29 -16 3 6 17 9 31 7
14 -2 41 -5 60 -7 19 -3 41 0 49 6 17 14 43 18 35 6 -3 -5 -10 -7 -15 -4 -5 4
-9 2 -9 -4 0 -5 8 -9 19 -8 11 1 17 7 16 17 -2 8 -4 17 -4 20 -1 3 -15 5 -31
6 -17 1 -38 10 -46 20 -9 10 -13 13 -9 7 3 -7 1 -13 -4 -13 -6 0 -11 -4 -11
-10 0 -5 7 -6 17 -3 10 4 14 2 10 -4 -5 -7 1 -10 15 -7 15 3 13 0 -6 -7 -24
-10 -31 -9 -41 4 -7 11 -16 13 -26 6 -19 -12 -32 -11 -24 1 3 6 1 10 -4 10 -6
0 -11 -5 -11 -11 0 -5 -4 -8 -8 -5 -5 3 -7 19 -4 35 4 29 5 30 28 14 14 -9 27
-13 31 -10 3 4 -6 11 -20 16 -14 6 -30 18 -36 28 -8 15 -10 10 -11 -24z m85
-73 c3 -6 -1 -7 -9 -4 -18 7 -21 14 -7 14 6 0 13 -4 16 -10z"/>
<path d="M3230 456 c29 -17 40 -20 40 -8 0 5 -6 9 -12 9 -7 0 -22 4 -33 7 -13
5 -12 2 5 -8z"/>
<path d="M3376 425 c-13 -42 -13 -48 -4 -68 7 -14 11 -15 22 -5 8 7 12 16 10
20 -2 3 5 4 16 1 11 -3 23 -10 27 -16 4 -6 0 -8 -10 -4 -10 3 -17 2 -17 -4 0
-6 8 -9 18 -7 26 5 20 21 -15 38 -24 11 -33 23 -35 45 l-3 30 -9 -30z"/>
<path d="M937 245 c-15 -10 -16 -17 -6 -37 6 -14 17 -25 24 -25 10 0 10 6 -3
25 -13 20 -13 25 -1 32 7 5 11 11 9 14 -3 2 -13 -1 -23 -9z"/>
<path d="M2973 519 c-2 -23 3 -25 10 -4 4 8 3 16 -1 19 -4 3 -9 -4 -9 -15z"/>
</g>
</svg>
